# xmcd
#
# Track frame offsets:
#	150
#	16457
#	33753
#	50739
#	65374
#	88294
#	104925
#	119962
#	137339
#	155062
#
# Disc length: 2321 seconds
#
# Revision: 0
# Processed by: cddbd v1.4PL0 Copyright (c) Steve Scherf et al.
# Submitted via: audiograbber 1.80
#
DISCID=94090f0a
DTITLE=Eddie Miller - Close To Home
DYEAR=1900
DGENRE=
TTITLE0=Marilyn
TTITLE1=Old Hank
TTITLE2=Mississippi
TTITLE3=You've Got The Curves
TTITLE4=Heartbeat of My Heart
TTITLE5=I Didn't Have You
TTITLE6=Do-La-La
TTITLE7=Breaking Up Breaks Me Down
TTITLE8=Devotion To The Motion of the Ocean
TTITLE9=Close To Home
EXTD=
EXTT0=
EXTT1=
EXTT2=
EXTT3=
EXTT4=
EXTT5=
EXTT6=
EXTT7=
EXTT8=
EXTT9=
PLAYORDER=
